<?xml version="1.0" encoding="iso-8859-1" ?>
<!-- Generator: Adobe Illustrator 19.0.0, SVG Export Plug-In . SVG Version: 6.00 Build 0)  -->
<svg
  version="1.1"
  id="Layer_1"
  xmlns="http://www.w3.org/2000/svg"
  xmlns:xlink="http://www.w3.org/1999/xlink"
  x="0px"
  y="0px"
  viewBox="0 0 512 512"
  style="enable-background:new 0 0 512 512;"
  xml:space="preserve"
>
	 <linearGradient
    id="SVGID_1_"
    gradientUnits="userSpaceOnUse"
    x1="256.005"
    x2="256.005"
    y1="512.009"
    y2="0"
  >
        <stop offset="0" stop-color="#a93aff" />
        <stop offset="1" stop-color="#ff81ff" />
    </linearGradient>
<g>
	<g>
		<g>
			<circle cx="277.333" cy="277.333" r="85.333" />
			<path
          d="M469.333,106.667H391.01c-8.552,0-16.583-3.333-22.635-9.375l-17.667-17.667C340.635,69.552,327.24,64,312.99,64h-71.313
				c-14.25,0-27.646,5.552-37.719,15.625l-17.667,17.667c-6.052,6.042-14.083,9.375-22.635,9.375H128V96
				c0-5.896-4.771-10.667-10.667-10.667H74.667C68.771,85.333,64,90.104,64,96v10.667H42.667C19.135,106.667,0,125.802,0,149.333
				v256C0,428.865,19.135,448,42.667,448h426.667C492.865,448,512,428.865,512,405.333v-256
				C512,125.802,492.865,106.667,469.333,106.667z M128,202.667c0,5.896-4.771,10.667-10.667,10.667H74.667
				c-5.896,0-10.667-4.771-10.667-10.667v-21.333c0-5.896,4.771-10.667,10.667-10.667h42.667c5.896,0,10.667,4.771,10.667,10.667
				V202.667z M277.333,384c-58.813,0-106.667-47.854-106.667-106.667s47.854-106.667,106.667-106.667S384,218.521,384,277.333
				S336.146,384,277.333,384z"
          fill="url(#SVGID_1_)"
        />
		</g>
	</g>
</g>
<g>
</g>
<g>
</g>
<g>
</g>
<g>
</g>
<g>
</g>
<g>
</g>
<g>
</g>
<g>
</g>
<g>
</g>
<g>
</g>
<g>
</g>
<g>
</g>
<g>
</g>
<g>
</g>
<g>
</g>
</svg>
