<svg
  version="1.1"
  id="Capa_1"
  xmlns="http://www.w3.org/2000/svg"
  xmlns:xlink="http://www.w3.org/1999/xlink"
  enable-background="new 0 0 511.606 511.606"
  viewBox="0 0 512 512"
  height="512"
  width="512"
>
	<linearGradient
    id="SVGID_1_"
    gradientUnits="userSpaceOnUse"
    x1="256.005"
    x2="256.005"
    y1="512.009"
    y2="0"
  >
		<stop offset="0" stop-color="#a93aff" />
		<stop offset="1" stop-color="#ff81ff" />
	</linearGradient>

	<path
    d="M437.019,74.981C388.668,26.629,324.38,0,256,0S123.332,26.629,74.981,74.981C26.63,123.333,0,187.62,0,256
			s26.629,132.668,74.981,181.019C123.333,485.37,187.621,512,256,512s132.668-26.629,181.019-74.981
			C485.37,388.667,512,324.379,512,256S485.371,123.332,437.019,74.981z M113.505,233.831c-8.349,0-15.118-6.769-15.118-15.118
			c0-26.783,21.789-48.572,48.572-48.572c26.782,0,48.571,21.789,48.571,48.572c0,8.349-6.769,15.118-15.118,15.118
			s-15.118-6.769-15.118-15.118c0-10.111-8.225-18.336-18.335-18.336c-10.111,0-18.336,8.225-18.336,18.336
			C128.623,227.062,121.855,233.831,113.505,233.831z M375.73,355.573c-31.98,31.981-74.501,49.595-119.73,49.595
			s-87.748-17.613-119.73-49.595c-5.904-5.903-5.904-15.476,0-21.38c5.903-5.903,15.476-5.905,21.38,0
			c26.27,26.27,61.198,40.739,98.35,40.739c37.152,0,72.08-14.468,98.35-40.739c5.903-5.903,15.476-5.903,21.38,0
			C381.634,340.096,381.634,349.669,375.73,355.573z M398.495,233.831c-8.349,0-15.118-6.769-15.118-15.118
			c0-10.111-8.225-18.336-18.336-18.336c-10.11,0-18.335,8.225-18.335,18.336c0,8.349-6.769,15.118-15.118,15.118
			s-15.118-6.769-15.118-15.118c0-26.783,21.789-48.572,48.571-48.572c26.783,0,48.572,21.789,48.572,48.572
			C413.612,227.062,406.844,233.831,398.495,233.831z"
    fill="url(#SVGID_1_)"
  />
</svg>
