<svg
  height="511pt"
  viewBox="0 -30 511.99938 511"
  width="511pt"
  xmlns="http://www.w3.org/2000/svg"
>
    <linearGradient
    id="SVGID_1_"
    gradientUnits="userSpaceOnUse"
    x1="256.005"
    x2="256.005"
    y1="512.009"
    y2="0"
  >
        <stop offset="0" stop-color="#a93aff" />
        <stop offset="1" stop-color="#ff81ff" />
    </linearGradient>
    <path
    d="m248.367188 448.496094c2.359374 1.394531 4.996093 2.082031 7.632812 2.082031s5.273438-.6875 7.632812-2.082031c10.398438-6.152344 255.613282-152.242188 248.203126-309.316406-3.632813-77.175782-63.378907-138.078126-134.769532-138.648438-61.941406-1.390625-100.558594 42.121094-121.066406 80.53125-20.40625-38.191406-59.363281-80.53125-120.042969-80.53125-.351562 0-.6875 0-1.023437 0-71.390625.574219-131.136719 61.472656-134.769532 138.648438-7.410156 157.074218 237.800782 303.164062 248.203126 309.316406zm0 0"
    fill="url(#SVGID_1_)"
  />
</svg>
