<svg
  id="Layer_1"
  enable-background="new 0 0 509.398 509.398"
  height="512"
  viewBox="0 0 509.398 509.398"
  width="512"
  xmlns="http://www.w3.org/2000/svg"
>
    <linearGradient
    id="SVGID_1_"
    gradientUnits="userSpaceOnUse"
    x1="256.005"
    x2="256.005"
    y1="512.009"
    y2="0"
  >
        <stop offset="0" stop-color="#a93aff" />
        <stop offset="1" stop-color="#ff81ff" />
    </linearGradient>
    <path
    d="m452.479 39.998h-395.56c-31.385 0-56.919 25.533-56.919 56.918v315.566c0 31.385 25.534 56.918 56.919 56.918h395.561c31.385 0 56.919-25.534 56.919-56.918v-315.566c-.001-31.385-25.535-56.918-56.92-56.918zm-293.064 60.749c6.51-6.51 17.065-6.51 23.575 0s6.51 17.065 0 23.575-17.065 6.51-23.575 0-6.51-17.065 0-23.575zm-74.28 23.575c-6.51 6.51-17.065 6.51-23.575 0s-6.51-17.065 0-23.575 17.065-6.51 23.575 0 6.51 17.065 0 23.575zm48.928 0c-6.51 6.51-17.065 6.51-23.575 0s-6.51-17.065 0-23.575 17.065-6.51 23.575 0 6.51 17.065 0 23.575zm112.883 232.157c-22.152 22.152-58.195 22.153-80.348 0-22.202-22.2-22.207-58.142 0-80.348l26.937-26.936c22.202-22.203 58.142-22.207 80.348 0 6.249 6.248 6.249 16.379 0 22.627-6.248 6.249-16.379 6.249-22.627 0-9.698-9.697-25.394-9.7-35.093 0l-26.938 26.937c-9.697 9.697-9.698 25.395 0 35.093 9.676 9.676 25.418 9.675 35.094 0 6.248-6.249 16.379-6.249 22.627 0 6.249 6.248 6.249 16.379 0 22.627zm95.854-71.002-26.937 26.936c-22.202 22.203-58.142 22.207-80.348 0-6.249-6.248-6.249-16.379 0-22.627 6.248-6.249 16.379-6.249 22.627 0 9.698 9.697 25.394 9.7 35.093 0l26.938-26.937c9.697-9.698 9.698-25.394 0-35.093-9.676-9.675-25.42-9.675-35.094 0-6.248 6.249-16.379 6.248-22.627 0-6.249-6.249-6.249-16.379 0-22.627 22.152-22.151 58.195-22.151 80.348 0 22.201 22.201 22.208 58.141 0 80.348z"
    fill="url(#SVGID_1_)"
  />
</svg>
