<?xml version="1.0" encoding="iso-8859-1"?>
<!-- Generator: Adobe Illustrator 19.0.0, SVG Export Plug-In . SVG Version: 6.00 Build 0)  -->
<svg version="1.1" id="Layer_1" xmlns="http://www.w3.org/2000/svg" xmlns:xlink="http://www.w3.org/1999/xlink" x="0px" y="0px"
	 viewBox="0 0 466.008 466.008" style="enable-background:new 0 0 466.008 466.008;" xml:space="preserve">
<g>
	<g>
		<path d="M397.763,68.245C353.754,24.236,295.241,0,233.004,0S112.254,24.236,68.245,68.245C24.236,112.254,0,170.767,0,233.004
			s24.236,120.75,68.245,164.759c44.009,44.009,102.521,68.245,164.759,68.245s120.75-24.236,164.759-68.245
			c44.009-44.009,68.245-102.521,68.245-164.759S441.772,112.254,397.763,68.245z M335.984,212.008
			c-2.322,5.605-7.791,9.26-13.858,9.26h-38.473v127.596c0,8.284-6.716,15-15,15h-71.298c-8.284,0-15-6.716-15-15V221.268h-38.474
			c-6.067,0-11.536-3.654-13.858-9.26c-2.321-5.605-1.038-12.057,3.252-16.347l89.122-89.123c2.813-2.813,6.628-4.394,10.606-4.394
			c3.978,0,7.794,1.58,10.606,4.394l89.122,89.123C337.022,199.951,338.306,206.402,335.984,212.008z"/>
	</g>
</g>
<g>
</g>
<g>
</g>
<g>
</g>
<g>
</g>
<g>
</g>
<g>
</g>
<g>
</g>
<g>
</g>
<g>
</g>
<g>
</g>
<g>
</g>
<g>
</g>
<g>
</g>
<g>
</g>
<g>
</g>
</svg>
